HIERARCHY
ROOT Hips
{
  OFFSET 42.3828 80.7952 -21.1474
  CHANNELS 6 Xposition Yposition Zposition Zrotation Xrotation Yrotation
  JOINT Chest
  {
    OFFSET 1.23234e-007 14.8421 1.27317e-009
    CHANNELS 6 Xposition Yposition Zposition Zrotation Xrotation Yrotation
    JOINT Neck
    {
      OFFSET 0.51659 29.8236 6.51843
      CHANNELS 6 Xposition Yposition Zposition Zrotation Xrotation Yrotation
      JOINT Head
      {
        OFFSET 1.16803e-007 7.47049 6.44171e-007
        CHANNELS 6 Xposition Yposition Zposition Zrotation Xrotation Yrotation
        End Site
        {
          OFFSET -4.32676e-008 16.2908 2.16786e-007
        }
      }
    }
    JOINT LeftCollar
    {
      OFFSET 6.64893 27.3161 3.27471
      CHANNELS 6 Xposition Yposition Zposition Zrotation Xrotation Yrotation
      JOINT LeftUpArm
      {
        OFFSET 10.8584 2.41798 -0.945791
        CHANNELS 6 Xposition Yposition Zposition Zrotation Xrotation Yrotation
        JOINT LeftLowArm
        {
          OFFSET 3.77631 -24.5904 -1.70468
          CHANNELS 6 Xposition Yposition Zposition Zrotation Xrotation Yrotation
          JOINT LeftHand
          {
            OFFSET 1.01026 -21.1231 1.74131
            CHANNELS 6 Xposition Yposition Zposition Zrotation Xrotation Yrotation
            End Site
            {
              OFFSET 1.17583e-006 -9.81266 -2.89439e-008
            }
          }
        }
      }
    }
    JOINT RightCollar
    {
      OFFSET -6.11406 27.2248 4.23427
      CHANNELS 6 Xposition Yposition Zposition Zrotation Xrotation Yrotation
      JOINT RightUpArm
      {
        OFFSET -10.4566 2.3285 -0.910794
        CHANNELS 6 Xposition Yposition Zposition Zrotation Xrotation Yrotation
        JOINT RightLowArm
        {
          OFFSET -3.86856 -25.191 -1.74633
          CHANNELS 6 Xposition Yposition Zposition Zrotation Xrotation Yrotation
          JOINT RightHand
          {
            OFFSET -1.04759 -20.6242 1.75213
            CHANNELS 6 Xposition Yposition Zposition Zrotation Xrotation Yrotation
            End Site
            {
              OFFSET -2.03487e-006 -9.50367 -4.31372e-006
            }
          }
        }
      }
    }
  }
  JOINT LeftUpLeg
  {
    OFFSET 9 -3.38008e-006 -5.22998e-009
    CHANNELS 6 Xposition Yposition Zposition Zrotation Xrotation Yrotation
    JOINT LeftLowLeg
    {
      OFFSET -0.575 -51.431 3.90177
      CHANNELS 6 Xposition Yposition Zposition Zrotation Xrotation Yrotation
      JOINT LeftFoot
      {
        OFFSET 2.13082e-007 -43.5882 -3.90177
        CHANNELS 6 Xposition Yposition Zposition Zrotation Xrotation Yrotation
        End Site
        {
          OFFSET 7.44796e-007 -6.93413 15.0046
        }
      }
    }
  }
  JOINT RightUpLeg
  {
    OFFSET -9 6.86154e-007 -3.19538e-009
    CHANNELS 6 Xposition Yposition Zposition Zrotation Xrotation Yrotation
    JOINT RightLowLeg
    {
      OFFSET 0.575 -51.4311 3.90177
      CHANNELS 6 Xposition Yposition Zposition Zrotation Xrotation Yrotation
      JOINT RightFoot
      {
        OFFSET -7.46079e-007 -43.5882 -3.90177
        CHANNELS 6 Xposition Yposition Zposition Zrotation Xrotation Yrotation
        End Site
        {
          OFFSET 4.66716e-007 -6.93413 15.0046
        }
      }
    }
  }
}
MOTION
Frames:	6
Frame Time:	0.0333333
42.3828 80.7952 -21.1474 2.4421 -8.54363 -0.492654 1.23234e-007 14.8421 1.27317e-009 -2.69127 10.7514 -2.16828 0.51659 29.8236 6.51843 -1.69774 -11.256 -0.422337 1.16803e-007 7.47049 6.44171e-007 1.06427 18.6019 -0.804506 6.64893 27.3161 3.27471 -2.94784 5.93879 -4.20517 10.8584 2.41798 -0.945791 76.0685 -57.8977 23.3373 3.77631 -24.5904 -1.70468 -15.1979 -39.2642 -56.6454 1.01026 -21.1231 1.74131 10.3039 -3.0712 1.01731 -6.11406 27.2248 4.23427 -1.96452 7.32629 3.42623 -10.4566 2.3285 -0.910794 -56.9972 -80.2582 -2.52829 -3.86856 -25.191 -1.74633 3.33314 -18.5261 65.483 -1.04759 -20.6242 1.75213 -7.70322 4.05815 -0.769766 9 -3.38008e-006 -5.22998e-009 20.1809 -19.6427 18.5611 -0.575 -51.431 3.90177 -3.19236 64.583 -18.1734 2.13082e-007 -43.5882 -3.90177 19.2461 -23.906 2.09853 -9 6.86154e-007 -3.19538e-009 -25.2942 -23.0166 -19.1471 0.575 -51.4311 3.90177 -10.537 63.1022 22.6054 -7.46079e-007 -43.5882 -3.90177 -18.2471 -19.3968 -1.22813 
42.3727 80.7495 -21.1046 2.48159 -8.54435 -0.450534 1.23234e-007 14.8421 1.27317e-009 -2.74618 10.6636 -2.14466 0.51659 29.8236 6.51843 -1.56153 -11.1066 -0.501111 1.16803e-007 7.47049 6.44171e-007 0.941251 18.4293 -0.802926 6.64893 27.3161 3.27471 -2.94784 5.93879 -4.20517 10.8584 2.41798 -0.945791 75.9685 -58.0043 23.2451 3.77631 -24.5904 -1.70468 -15.0678 -39.1002 -56.6187 1.01026 -21.1231 1.74131 10.4251 -3.03759 1.03476 -6.11406 27.2248 4.23427 -1.96452 7.32629 3.42623 -10.4566 2.3285 -0.910794 -57.0295 -80.2084 -2.6285 -3.86856 -25.191 -1.74633 3.39147 -18.6002 65.8234 -1.04759 -20.6242 1.75213 -7.5929 3.99146 -0.760139 9 -3.38008e-006 -5.22998e-009 20.1702 -19.6578 18.5542 -0.575 -51.431 3.90177 -3.21205 64.662 -18.175 2.13082e-007 -43.5882 -3.90177 19.2583 -23.9435 2.10662 -9 6.86154e-007 -3.19538e-009 -25.3717 -22.9567 -19.2258 0.575 -51.4311 3.90177 -10.5218 63.1464 22.5415 -7.46079e-007 -43.5882 -3.90177 -18.2591 -19.4676 -1.23991 
42.3316 80.664 -21.0334 2.44783 -8.55832 -0.488428 1.23234e-007 14.8421 1.27317e-009 -2.78916 10.6742 -2.0932 0.51659 29.8236 6.51843 -1.48149 -11.2833 -0.530255 1.16803e-007 7.47049 6.44171e-007 0.943774 18.5899 -0.812661 6.64893 27.3161 3.27471 -2.94784 5.93879 -4.20517 10.8584 2.41798 -0.945791 76.3575 -57.7734 23.2993 3.77631 -24.5904 -1.70468 -15.3379 -39.3596 -56.4178 1.01026 -21.1231 1.74131 10.4447 -3.04383 1.03789 -6.11406 27.2248 4.23427 -1.96452 7.32629 3.42623 -10.4566 2.3285 -0.910794 -58.2894 -80.0988 -3.99379 -3.86856 -25.191 -1.74633 3.80304 -19.0313 66.4994 -1.04759 -20.6242 1.75213 -7.54241 4.09939 -0.755827 9 -3.38008e-006 -5.22998e-009 20.2818 -19.6329 18.6011 -0.575 -51.431 3.90177 -3.21876 64.8067 -18.2023 2.13082e-007 -43.5882 -3.90177 19.3291 -24.13 2.14812 -9 6.86154e-007 -3.19538e-009 -25.2842 -22.8495 -19.2296 0.575 -51.4311 3.90177 -10.5051 63.1393 22.3265 -7.46079e-007 -43.5882 -3.90177 -18.1707 -19.3221 -1.21014 
42.3469 80.6613 -20.9803 2.48573 -8.57038 -0.512872 1.23234e-007 14.8421 1.27317e-009 -2.89165 10.6521 -2.06456 0.51659 29.8236 6.51843 -1.15335 -11.3601 -0.583474 1.16803e-007 7.47049 6.44171e-007 0.432213 18.557 -0.616498 6.64893 27.3161 3.27471 -2.94784 5.93879 -4.20517 10.8584 2.41798 -0.945791 76.5132 -57.5171 22.7483 3.77631 -24.5904 -1.70468 -15.4058 -39.6338 -55.5158 1.01026 -21.1231 1.74131 10.3414 -3.02405 1.02178 -6.11406 27.2248 4.23427 -1.96452 7.32629 3.42623 -10.4566 2.3285 -0.910794 -58.0308 -80.1052 -3.75805 -3.86856 -25.191 -1.74633 3.80567 -19.0409 66.5136 -1.04759 -20.6242 1.75213 -7.46823 4.16028 -0.749466 9 -3.38008e-006 -5.22998e-009 20.2131 -19.5669 18.5736 -0.575 -51.431 3.90177 -3.21686 64.7881 -18.1203 2.13082e-007 -43.5882 -3.90177 19.3688 -24.1906 2.16369 -9 6.86154e-007 -3.19538e-009 -25.3361 -22.947 -19.1417 0.575 -51.4311 3.90177 -10.6494 63.3103 22.5767 -7.46079e-007 -43.5882 -3.90177 -18.2652 -19.4655 -1.24015 
42.3563 80.6027 -20.9271 2.56087 -8.54912 -0.508118 1.23234e-007 14.8421 1.27317e-009 -2.96743 10.4491 -1.99807 0.51659 29.8236 6.51843 -0.801052 -11.1292 -0.696345 1.16803e-007 7.47049 6.44171e-007 -0.265019 18.2461 -0.406838 6.64893 27.3161 3.27471 -2.94784 5.93879 -4.20517 10.8584 2.41798 -0.945791 76.4021 -57.5101 21.8491 3.77631 -24.5904 -1.70468 -15.0712 -39.4782 -54.3434 1.01026 -21.1231 1.74131 10.4804 -2.92507 1.03993 -6.11406 27.2248 4.23427 -1.96452 7.32629 3.42623 -10.4566 2.3285 -0.910794 -57.2359 -80.1151 -2.99089 -3.86856 -25.191 -1.74633 3.61488 -18.9447 66.2927 -1.04759 -20.6242 1.75213 -7.25195 4.04699 -0.730558 9 -3.38008e-006 -5.22998e-009 20.0994 -19.5748 18.4965 -0.575 -51.431 3.90177 -3.20545 64.8333 -17.9298 2.13082e-007 -43.5882 -3.90177 19.4362 -24.4003 2.20944 -9 6.86154e-007 -3.19538e-009 -25.4873 -22.9809 -19.2223 0.575 -51.4311 3.90177 -10.6768 63.4418 22.7131 -7.46079e-007 -43.5882 -3.90177 -18.2645 -19.4414 -1.23636 
42.3548 80.5658 -20.8792 2.54963 -8.5466 -0.540508 1.23234e-007 14.8421 1.27317e-009 -2.96694 10.2539 -1.96416 0.51659 29.8236 6.51843 -0.734604 -10.8205 -0.7046 1.16803e-007 7.47049 6.44171e-007 -0.50154 18.0969 -0.320963 6.64893 27.3161 3.27471 -2.94784 5.93879 -4.20517 10.8584 2.41798 -0.945791 76.1039 -57.504 21.0489 3.77631 -24.5904 -1.70468 -14.7852 -39.2652 -53.7402 1.01026 -21.1231 1.74131 10.7163 -2.765 1.07065 -6.11406 27.2248 4.23427 -1.96452 7.32629 3.42623 -10.4566 2.3285 -0.910794 -55.8418 -80.2483 -1.61178 -3.86856 -25.191 -1.74633 3.30664 -18.5808 66.0671 -1.04759 -20.6242 1.75213 -7.13393 4.04037 -0.72027 9 -3.38008e-006 -5.22998e-009 20.1155 -19.5468 18.5039 -0.575 -51.431 3.90177 -3.19685 64.8762 -17.8578 2.13082e-007 -43.5882 -3.90177 19.5167 -24.5866 2.25286 -9 6.86154e-007 -3.19538e-009 -25.4991 -22.9994 -19.2155 0.575 -51.4311 3.90177 -10.7018 63.5165 22.7642 -7.46079e-007 -43.5882 -3.90177 -18.2923 -19.5387 -1.25376 
